# Blender 4.3.2
# www.blender.org
mtllib shamrock low poly.mtl
o clover-heart-3dprintny
v -14.536452 1.000000 16.058743
v -15.347668 0.000000 17.191521
v -16.956360 0.000000 20.443863
v -31.225439 0.000000 18.117226
v -32.785992 1.000000 17.674543
v -29.724743 1.000000 18.363129
v -28.079262 0.000000 18.410776
v -26.045876 1.000000 18.250389
v -24.556883 0.000000 17.984100
v -22.488819 1.000000 17.432167
v -19.697433 0.000000 16.458540
v -17.844398 0.000000 23.939507
v -17.898987 1.000000 24.315983
v -17.866531 0.000000 28.828772
v -16.813663 1.000000 19.972597
v -17.825603 1.000000 28.946608
v -16.546412 0.000000 32.207325
v -16.694317 1.000000 31.969070
v -14.832156 0.000000 33.976799
v -14.839868 1.000000 33.989849
v -12.198735 0.000000 35.222073
v -12.803119 1.000000 34.989887
v -9.876963 1.000000 35.477791
v -8.371176 0.000000 35.404491
v -6.527570 1.000000 35.093956
v -5.285215 0.000000 34.777828
v -1.677451 1.000000 33.646542
v -1.692000 0.000000 33.636002
v 0.957579 1.000000 35.095646
v 0.916498 0.000000 35.064812
v -35.514282 0.000000 1.970076
v -35.542915 1.000000 1.936206
v -37.094395 0.000000 6.439541
v -37.187912 1.000000 7.002480
v -37.545021 0.000000 10.098694
v -37.570187 1.000000 10.532935
v -37.269646 0.000000 12.583861
v -36.741470 1.000000 14.201686
v -36.354904 0.000000 14.804320
v -34.199883 0.000000 16.999056
v -34.890491 1.000000 16.439899
v 3.871966 0.000000 -34.321686
v 1.337694 1.000000 -33.326496
v 1.403045 0.000000 -33.282696
v 16.086927 0.000000 -17.721363
v 16.930422 1.000000 -19.649632
v 17.485485 0.000000 -21.524906
v 17.865644 1.000000 -23.397781
v 18.017580 0.000000 -24.684000
v 18.075310 1.000000 -26.528259
v 18.000500 0.000000 -27.759874
v 17.757523 1.000000 -29.237362
v 17.263199 0.000000 -30.959124
v 17.025379 1.000000 -31.436010
v 15.709185 0.000000 -33.359413
v 15.706203 1.000000 -33.348141
v 33.377239 0.000000 -12.094422
v 30.014864 0.000000 -13.614360
v 31.842388 1.000000 -12.920709
v 28.009998 1.000000 -14.129346
v 26.447565 0.000000 -14.344822
v 21.754671 1.000000 -14.369850
v 21.479349 0.000000 -14.293240
v 18.176224 0.000000 -13.712734
v 16.503981 1.000000 -13.181048
v 13.807060 0.000000 -14.332754
v 14.991917 1.000000 -15.892934
v 12.249000 1.000000 -12.593000
v 7.359514 1.000000 -7.497351
v 14.922267 0.000000 -12.412934
v 11.270338 0.000000 -10.212618
v 12.013303 1.000000 -10.712993
v 7.287255 1.000000 -7.112021
v 7.346889 0.000000 -7.127882
v 7.140651 0.000000 -7.219369
v 34.947590 1.000000 16.051373
v 33.798172 0.000000 17.079657
v 35.654190 0.000000 15.206231
v 36.054104 1.000000 14.518586
v 36.834099 0.000000 12.328024
v 36.813869 1.000000 12.215524
v 36.789478 1.000000 7.774439
v 36.689259 0.000000 7.231879
v 35.165508 1.000000 2.342724
v 35.160000 0.000000 2.352000
v 13.691219 0.000000 32.061314
v 13.823203 1.000000 31.864981
v 15.101346 0.000000 29.323391
v 15.185518 1.000000 29.100866
v 16.068506 0.000000 25.626247
v 16.023088 1.000000 25.830252
v 15.997836 1.000000 19.855534
v 15.953009 0.000000 19.811888
v 9.806780 0.000000 35.357674
v 8.677541 1.000000 35.812153
v 7.705368 0.000000 36.040535
v 11.514364 1.000000 34.378811
v 11.668823 0.000000 34.226692
v 4.523118 0.000000 36.123863
v 5.147409 1.000000 36.209969
v -2.414733 0.000000 -34.904915
v -2.414773 1.000000 -34.887360
v -6.259329 0.000000 -35.444065
v -6.004802 1.000000 -35.442146
v -9.835726 0.000000 -34.846470
v -9.558627 1.000000 -34.941818
v -12.717861 0.000000 -33.177708
v -13.182011 1.000000 -32.838886
v -14.472525 0.000000 -31.321825
v -15.430461 1.000000 -29.790495
v -15.869426 0.000000 -28.806427
v -16.046812 0.000000 -19.018919
v -16.520775 1.000000 -20.974775
v -15.735791 1.000000 -18.244593
v -14.744666 0.000000 -16.352158
v -14.415600 1.000000 -15.848297
v -16.441174 1.000000 -26.862703
v -16.608612 0.000000 -25.900867
v -37.262699 0.000000 -1.793408
v -37.681995 0.000000 -6.600489
v -7.259492 0.000000 9.103435
v -12.472598 0.000000 12.729537
v -10.962630 0.000000 -10.719936
v -14.946042 0.000000 -13.385939
v -12.152397 0.000000 13.460441
v 35.274780 1.000000 -10.536926
v 37.360710 1.000000 -2.797561
v 36.545918 1.000000 -0.229991
v 37.089054 1.000000 -7.663636
v 37.575558 1.000000 -5.090732
v -16.744652 1.000000 -24.202793
v -12.319146 1.000000 -13.338238
v -14.564861 1.000000 -13.196215
v -18.120745 1.000000 -14.845898
v -17.238621 1.000000 15.364107
v -5.273785 1.000000 -6.539843
v -7.258934 1.000000 9.105588
v -11.281412 1.000000 11.932552
v -10.138697 1.000000 -10.045641
v -21.278362 1.000000 -15.662105
v -26.677238 1.000000 -15.606472
v -29.660431 1.000000 -14.916515
v -33.387470 1.000000 -13.193501
v -35.821339 1.000000 -10.857622
v -37.007538 1.000000 -8.863955
v -37.665226 1.000000 -6.581099
v -37.331596 1.000000 -2.002419
v -5.672616 1.000000 -6.193413
v -11.315690 1.000000 12.701433
v 35.897999 0.000000 -9.749723
v 37.286991 0.000000 -7.146160
v 36.472729 0.000000 -0.070858
v 37.525150 0.000000 -3.498347
v 13.747121 0.000000 -34.796204
v 13.897649 1.000000 -34.718212
v 12.183082 0.000000 -35.334221
v 12.065911 1.000000 -35.367313
v 8.523333 0.000000 -35.564213
v 8.068030 1.000000 -35.510471
v -16.729654 0.000000 -22.694979
v -12.618151 0.000000 -13.623190
v -18.114687 0.000000 -14.856361
v -5.290523 0.000000 -6.538057
v -5.677407 0.000000 -6.179281
v -21.029640 0.000000 -15.611698
v -26.360962 0.000000 -15.668614
v -29.944355 0.000000 -14.819767
v -33.608906 0.000000 -13.032911
v -35.416950 0.000000 -11.310985
v -36.735386 0.000000 -9.459098
v 18.279776 1.000000 15.956184
v 23.681629 1.000000 18.097641
v 33.196808 1.000000 17.465265
v 36.010628 1.000000 26.573698
v 30.430954 1.000000 30.851463
v 38.229496 1.000000 27.006578
v 32.217575 1.000000 25.373602
v 38.424114 1.000000 28.680836
v 37.943981 1.000000 31.111141
v 36.672119 1.000000 34.298416
v 27.699482 1.000000 18.610622
v 30.572886 1.000000 18.385483
v 22.539106 1.000000 25.289936
v 27.223042 1.000000 22.886387
v 21.797241 1.000000 19.020597
v 17.959816 0.000000 15.696796
v 38.240513 0.000000 27.007601
v 38.411915 0.000000 28.666229
v 35.440113 0.000000 26.436867
v 30.778517 0.000000 31.049143
v 37.950405 0.000000 31.125093
v 36.659794 0.000000 34.302719
v 21.061480 0.000000 17.248350
v 22.950062 0.000000 25.630507
v 27.282642 0.000000 22.905064
v 21.798492 0.000000 19.037104
v 30.928577 0.000000 18.342703
v 26.023098 0.000000 18.548399
v 31.527742 0.000000 25.080132
vn -0.8570 0.1304 -0.4986
vn -0.8934 -0.0808 -0.4419
vn -0.3487 -0.1336 0.9277
vn -0.2186 0.0891 0.9717
vn -0.0924 -0.1048 0.9902
vn 0.0305 0.0976 0.9948
vn 0.1198 -0.0850 0.9892
vn 0.2236 0.0741 0.9719
vn 0.2982 -0.0924 0.9500
vn -0.9986 -0.0528 -0.0045
vn -0.9690 0.0223 -0.2462
vn -0.9695 0.0383 -0.2422
vn -0.9991 0.0390 0.0158
vn -0.9302 -0.0510 0.3635
vn -0.9365 -0.0030 0.3505
vn -0.7181 -0.0146 0.6957
vn -0.7358 0.0520 0.6752
vn -0.4400 -0.0579 0.8961
vn -0.4274 -0.0151 0.9039
vn -0.1631 0.1285 0.9782
vn -0.0471 -0.1434 0.9885
vn 0.1133 0.0981 0.9887
vn 0.1986 -0.0624 0.9781
vn 0.2856 0.0523 0.9569
vn 0.3028 -0.0144 0.9529
vn -0.4819 -0.0022 0.8762
vn -0.4804 -0.0073 0.8770
vn -0.9068 -0.0117 0.4213
vn -0.9103 0.0237 0.4134
vn -0.9421 -0.0383 -0.3331
vn -0.9477 0.0846 -0.3077
vn -0.9921 0.0281 -0.1222
vn -0.9937 -0.0324 -0.1076
vn -0.9913 -0.0726 0.1098
vn -0.9634 0.1568 0.2176
vn -0.9171 -0.1268 0.3778
vn -0.7099 -0.1005 0.6971
vn -0.7678 0.0858 0.6349
vn -0.5016 0.1317 0.8550
vn -0.3046 0.1622 -0.9386
vn -0.3870 -0.0656 -0.9197
vn 0.8807 0.1334 0.4545
vn 0.9312 -0.1252 0.3424
vn 0.9668 0.0843 0.2412
vn 0.9841 -0.0637 0.1658
vn 0.9956 0.0655 0.0667
vn 0.9977 -0.0678 -0.0055
vn 0.9908 0.0690 -0.1162
vn 0.9701 -0.0946 -0.2236
vn 0.9461 0.0748 -0.3151
vn 0.8231 0.0089 -0.5678
vn 0.8379 -0.0594 -0.5425
vn 0.4089 -0.1198 -0.9047
vn 0.2989 0.1112 -0.9478
vn 0.1996 -0.1018 -0.9746
vn 0.0380 0.1535 -0.9874
vn -0.0104 -0.0735 -0.9972
vn -0.1730 -0.0278 -0.9845
vn -0.2184 0.1477 -0.9646
vn 0.7662 0.0858 0.6369
vn 0.8245 -0.1114 0.5547
vn 0.7211 0.0345 0.6919
vn 0.7286 -0.0527 0.6829
vn -0.3680 -0.1256 -0.9213
vn -0.5155 -0.0451 -0.8557
vn -0.4798 0.0883 -0.8729
vn -0.6052 0.0522 -0.7943
vn -0.6179 -0.0244 -0.7859
vn 0.4052 0.0387 -0.9134
vn 0.9699 -0.1617 0.1819
vn 0.7074 -0.0924 0.7008
vn 0.8083 0.0780 0.5835
vn 0.9198 -0.1086 0.3771
vn 0.9483 0.0544 0.3128
vn 0.9998 0.0196 -0.0055
vn 0.9960 -0.0845 -0.0283
vn 0.9564 0.0593 -0.2859
vn 0.9542 -0.0080 -0.2990
vn 0.8967 0.0229 0.4420
vn 0.8887 -0.0274 0.4577
vn 0.9687 -0.0066 0.2481
vn 0.9671 -0.0251 0.2530
vn 0.9989 0.0462 -0.0042
vn 0.9988 -0.0439 -0.0198
vn 0.3080 -0.0830 0.9478
vn 0.4486 0.1031 0.8878
vn 0.5185 -0.0498 0.8536
vn 0.7360 0.0356 0.6760
vn 0.7308 0.0091 0.6825
vn -0.2563 0.0770 0.9635
vn -0.2817 -0.0180 0.9593
vn 0.0260 -0.1019 0.9945
vn 0.1112 0.1173 0.9869
vn 0.1388 -0.0334 -0.9898
vn 0.1527 0.0174 -0.9881
vn -0.1646 -0.0483 -0.9852
vn -0.1393 0.0374 -0.9895
vn -0.5002 0.0605 -0.8638
vn -0.5012 0.0565 -0.8635
vn -0.7227 -0.1039 -0.6833
vn -0.7972 0.1368 -0.5880
vn -0.8704 -0.0936 -0.4834
vn -0.9411 0.0934 -0.3249
vn -0.9774 -0.1082 0.1816
vn -0.9576 0.0846 0.2753
vn -0.8970 -0.0602 0.4380
vn -0.8750 0.0450 0.4821
vn -0.9919 0.0572 -0.1132
vn -0.9664 -0.0747 -0.2459
vn -0.0000 -1.0000 -0.0000
vn -0.0000 1.0000 -0.0000
vn 0.8408 0.1061 -0.5309
vn 0.8802 -0.0688 -0.4696
vn 0.6733 -0.1502 -0.7239
vn 0.5597 0.1931 -0.8059
vn 0.9862 -0.1522 -0.0644
vn 0.9779 0.0979 -0.1849
vn 0.9517 -0.0551 0.3020
vn 0.9557 -0.0232 0.2934
vn 0.9909 0.0979 0.0928
vn 0.5906 -0.0260 -0.8065
vn 0.6038 0.0108 -0.7971
vn 0.3253 0.0068 -0.9456
vn 0.3339 0.0232 -0.9423
vn 0.0627 -0.0257 -0.9977
vn 0.0357 0.0698 -0.9969
vn 0.3840 0.0162 -0.9232
vn 0.3910 -0.0148 -0.9203
vn -0.2575 -0.0654 -0.9641
vn -0.9967 -0.0717 -0.0376
vn -0.9936 0.0890 0.0689
vn -0.7878 -0.0501 0.6139
vn -0.7667 0.0468 0.6403
vn -0.6944 0.0026 0.7196
vn 0.5554 -0.0543 -0.8298
vn 0.4209 0.0116 -0.9070
vn -0.6951 0.0129 0.7188
vn 0.5784 0.0714 -0.8126
vn -0.6799 0.0101 -0.7332
vn -0.6557 -0.0075 -0.7549
vn 0.6531 -0.0138 -0.7572
vn 0.6514 -0.0255 -0.7583
vn 0.4208 0.0120 -0.9071
vn 0.2508 0.0136 -0.9679
vn 0.2502 0.0116 -0.9681
vn 0.0107 -0.0477 -0.9988
vn -0.0103 0.0588 -0.9982
vn -0.2304 -0.0287 -0.9727
vn -0.2253 -0.0107 -0.9742
vn -0.4378 -0.0472 -0.8978
vn -0.4194 0.0313 -0.9073
vn -0.6888 0.0494 -0.7233
vn -0.6919 0.0374 -0.7210
vn -0.8128 -0.0663 -0.5787
vn -0.8573 0.0703 -0.5101
vn -0.9469 -0.0711 -0.3136
vn -0.9607 0.0215 -0.2768
vn -0.9950 -0.0504 0.0868
vn -0.9972 0.0153 0.0727
vn -0.7194 0.0781 -0.6902
vn -0.7541 -0.1198 -0.6458
vn -0.6650 0.0020 -0.7468
vn -0.6633 -0.0130 -0.7483
vn 0.3640 0.1163 0.9241
vn 0.4532 -0.1534 0.8781
vn 0.4969 0.0956 0.8626
vn 0.5747 -0.0328 0.8177
vn 0.5710 -0.0021 0.8209
vn 0.8811 0.0107 0.4728
vn 0.8792 -0.0004 0.4764
vn 0.6264 0.0776 0.7756
vn 0.9946 -0.0106 -0.1028
vn 0.9933 0.0108 -0.1155
vn 0.1997 0.0201 -0.9797
vn 0.1915 0.0011 -0.9815
vn 0.3014 -0.0416 -0.9526
vn 0.3272 0.0512 -0.9436
vn 0.9287 0.0111 0.3706
vn 0.9827 -0.0147 0.1845
vn 0.9810 0.0090 0.1938
vn 0.9265 -0.0098 0.3763
vn 0.6564 -0.0144 -0.7543
vn -0.4456 -0.0885 0.8908
vn 0.4560 0.0106 -0.8899
vn 0.4453 -0.0448 -0.8942
vn 0.5763 0.0191 -0.8170
vn -0.1252 0.1489 0.9809
vn 0.0781 -0.0149 0.9968
vn 0.0415 -0.1313 0.9905
vn 0.3300 0.0771 0.9408
vn 0.4004 -0.1100 0.9097
vn 0.5802 -0.0127 -0.8144
vn 0.6568 -0.0116 -0.7539
vn -0.6390 -0.0006 0.7692
vn -0.6394 -0.0049 0.7689
vn -0.3629 0.1734 0.9155
vn -0.2504 -0.1555 0.9556
vn -0.5755 0.0416 0.8167
vn -0.5688 -0.0352 0.8217
vn -0.4841 0.0047 0.8750
vn -0.4834 0.0097 0.8753
s 0
f 1//1 2//1 15//1
f 2//2 3//2 15//2
f 4//3 5//3 40//3
f 4//4 6//4 5//4
f 7//5 6//5 4//5
f 7//6 8//6 6//6
f 9//7 8//7 7//7
f 9//8 10//8 8//8
f 11//9 10//9 9//9
f 12//10 14//10 13//10
f 15//11 3//11 12//11
f 15//12 12//12 13//12
f 14//13 16//13 13//13
f 14//14 17//14 18//14
f 14//15 18//15 16//15
f 17//16 19//16 20//16
f 17//17 20//17 18//17
f 21//18 22//18 20//18
f 21//19 20//19 19//19
f 21//20 23//20 22//20
f 24//21 23//21 21//21
f 24//22 25//22 23//22
f 26//23 25//23 24//23
f 26//24 27//24 25//24
f 27//25 26//25 28//25
f 29//26 27//26 28//26
f 29//27 28//27 30//27
f 119//28 31//28 32//28
f 119//29 32//29 147//29
f 32//30 31//30 33//30
f 33//31 34//31 32//31
f 33//32 35//32 36//32
f 33//33 36//33 34//33
f 35//34 37//34 36//34
f 37//35 38//35 36//35
f 37//36 39//36 38//36
f 39//37 40//37 41//37
f 39//38 41//38 38//38
f 5//39 41//39 40//39
f 42//40 43//40 159//40
f 42//41 44//41 43//41
f 45//42 46//42 67//42
f 47//43 46//43 45//43
f 47//44 48//44 46//44
f 49//45 48//45 47//45
f 49//46 50//46 48//46
f 51//47 50//47 49//47
f 51//48 52//48 50//48
f 53//49 52//49 51//49
f 53//50 54//50 52//50
f 55//51 56//51 54//51
f 55//52 54//52 53//52
f 57//53 58//53 59//53
f 58//54 60//54 59//54
f 58//55 61//55 60//55
f 61//56 62//56 60//56
f 61//57 63//57 62//57
f 63//58 64//58 62//58
f 64//59 65//59 62//59
f 66//60 67//60 68//60
f 45//61 67//61 66//61
f 68//62 69//62 75//62
f 68//63 75//63 66//63
f 64//64 70//64 65//64
f 70//65 71//65 72//65
f 70//66 72//66 65//66
f 71//67 73//67 72//67
f 71//68 74//68 73//68
f 73//69 74//69 75//69
f 69//70 73//70 75//70
f 76//71 77//71 78//71
f 78//72 79//72 76//72
f 78//73 80//73 79//73
f 80//74 81//74 79//74
f 80//75 82//75 81//75
f 83//76 82//76 80//76
f 83//77 84//77 82//77
f 84//78 83//78 85//78
f 88//79 89//79 87//79
f 88//80 87//80 86//80
f 90//81 91//81 89//81
f 90//82 89//82 88//82
f 90//83 92//83 91//83
f 93//84 92//84 90//84
f 94//85 95//85 96//85
f 94//86 97//86 95//86
f 98//87 97//87 94//87
f 86//88 87//88 97//88
f 86//89 97//89 98//89
f 99//90 100//90 29//90
f 99//91 29//91 30//91
f 96//92 100//92 99//92
f 95//93 100//93 96//93
f 101//94 103//94 104//94
f 101//95 104//95 102//95
f 103//96 105//96 106//96
f 103//97 106//97 104//97
f 105//98 107//98 108//98
f 105//99 108//99 106//99
f 107//100 109//100 108//100
f 109//101 110//101 108//101
f 109//102 111//102 110//102
f 111//103 117//103 110//103
f 160//104 112//104 113//104
f 112//105 114//105 113//105
f 112//106 115//106 114//106
f 115//107 116//107 114//107
f 117//108 118//108 131//108
f 111//109 118//109 117//109
f 120//110 11//110 119//110
f 11//110 124//110 122//110
f 122//110 164//110 121//110
f 3//110 2//110 26//110
f 26//110 2//110 28//110
f 125//110 28//110 2//110
f 9//110 7//110 4//110
f 4//110 40//110 9//110
f 3//110 26//110 12//110
f 24//110 21//110 14//110
f 14//110 12//110 24//110
f 24//110 12//110 26//110
f 21//110 19//110 17//110
f 17//110 14//110 21//110
f 31//110 119//110 11//110
f 35//110 33//110 9//110
f 37//110 35//110 9//110
f 33//110 31//110 9//110
f 11//110 9//110 31//110
f 39//110 37//110 9//110
f 40//110 39//110 9//110
f 126//111 59//111 127//111
f 128//111 127//111 59//111
f 117//111 131//111 102//111
f 113//111 114//111 43//111
f 114//111 116//111 43//111
f 130//111 129//111 126//111
f 127//111 130//111 126//111
f 131//111 113//111 43//111
f 43//111 102//111 131//111
f 132//111 43//111 116//111
f 67//111 46//111 43//111
f 133//111 134//111 135//111
f 69//111 68//111 43//111
f 135//111 138//111 133//111
f 139//111 133//111 138//111
f 140//111 135//111 134//111
f 140//111 141//111 142//111
f 140//111 142//111 143//111
f 144//111 140//111 143//111
f 145//111 140//111 144//111
f 147//111 140//111 146//111
f 32//111 10//111 140//111
f 145//111 146//111 140//111
f 15//111 13//111 1//111
f 69//111 136//111 73//111
f 148//111 139//111 137//111
f 136//111 148//111 137//111
f 73//111 136//111 137//111
f 16//111 18//111 1//111
f 20//111 22//111 1//111
f 137//111 149//111 27//111
f 6//111 36//111 5//111
f 8//111 34//111 6//111
f 10//111 32//111 8//111
f 13//111 16//111 1//111
f 18//111 20//111 1//111
f 149//111 1//111 27//111
f 22//111 23//111 1//111
f 23//111 25//111 1//111
f 25//111 27//111 1//111
f 135//111 140//111 10//111
f 38//111 41//111 36//111
f 147//111 32//111 140//111
f 34//111 8//111 32//111
f 36//111 6//111 34//111
f 5//111 36//111 41//111
f 150//112 126//112 129//112
f 150//113 129//113 151//113
f 150//114 57//114 126//114
f 57//115 59//115 126//115
f 151//116 130//116 153//116
f 151//117 129//117 130//117
f 153//118 127//118 128//118
f 153//119 128//119 152//119
f 130//120 127//120 153//120
f 55//121 154//121 155//121
f 55//122 155//122 56//122
f 154//123 156//123 157//123
f 154//124 157//124 155//124
f 156//125 158//125 157//125
f 158//126 159//126 157//126
f 102//127 43//127 101//127
f 44//128 101//128 43//128
f 158//129 42//129 159//129
f 118//130 160//130 131//130
f 160//131 113//131 131//131
f 115//132 161//132 116//132
f 161//133 132//133 116//133
f 161//134 136//134 132//134
f 133//135 123//135 124//135
f 124//136 162//136 133//136
f 163//137 136//137 161//137
f 139//138 123//138 133//138
f 136//139 163//139 164//139
f 136//140 164//140 148//140
f 148//141 164//141 139//141
f 139//142 164//142 123//142
f 162//143 134//143 133//143
f 162//144 165//144 140//144
f 162//145 140//145 134//145
f 165//146 166//146 140//146
f 166//147 141//147 140//147
f 166//148 167//148 142//148
f 166//149 142//149 141//149
f 167//150 168//150 143//150
f 167//151 143//151 142//151
f 168//152 169//152 144//152
f 168//153 144//153 143//153
f 169//154 170//154 144//154
f 170//155 145//155 144//155
f 170//156 120//156 145//156
f 120//157 146//157 145//157
f 120//158 119//158 147//158
f 120//159 147//159 146//159
f 149//160 125//160 1//160
f 125//161 2//161 1//161
f 137//162 121//162 125//162
f 137//163 125//163 149//163
f 10//164 11//164 135//164
f 122//165 135//165 11//165
f 122//166 138//166 135//166
f 137//167 138//167 122//167
f 137//168 122//168 121//168
f 155//111 157//111 56//111
f 159//111 52//111 157//111
f 132//111 136//111 43//111
f 48//111 50//111 159//111
f 52//111 159//111 50//111
f 54//111 157//111 52//111
f 56//111 157//111 54//111
f 159//111 43//111 48//111
f 136//111 69//111 43//111
f 46//111 48//111 43//111
f 60//111 128//111 59//111
f 62//111 171//111 60//111
f 65//111 171//111 62//111
f 128//111 60//111 84//111
f 68//111 67//111 43//111
f 72//111 171//111 65//111
f 73//111 171//111 72//111
f 171//111 172//111 84//111
f 76//111 79//111 81//111
f 84//111 60//111 171//111
f 173//111 76//111 81//111
f 174//111 175//111 176//111
f 177//111 175//111 174//111
f 178//111 176//111 175//111
f 179//111 178//111 175//111
f 171//111 137//111 92//111
f 172//111 181//111 82//111
f 181//111 182//111 82//111
f 82//111 84//111 172//111
f 137//111 171//111 73//111
f 138//111 137//111 139//111
f 182//111 173//111 82//111
f 81//111 82//111 173//111
f 92//111 183//111 185//111
f 184//111 185//111 183//111
f 171//111 92//111 185//111
f 183//111 175//111 184//111
f 177//111 184//111 175//111
f 180//111 179//111 175//111
f 89//111 91//111 29//111
f 92//111 29//111 91//111
f 137//111 27//111 92//111
f 29//111 92//111 27//111
f 100//111 95//111 97//111
f 87//111 89//111 29//111
f 29//111 100//111 87//111
f 97//111 87//111 100//111
f 104//111 106//111 110//111
f 108//111 110//111 106//111
f 110//111 117//111 102//111
f 102//111 104//111 110//111
f 150//110 61//110 57//110
f 153//110 61//110 151//110
f 152//110 61//110 153//110
f 158//110 156//110 154//110
f 154//110 55//110 158//110
f 55//110 53//110 158//110
f 53//110 51//110 158//110
f 51//110 49//110 158//110
f 42//110 158//110 49//110
f 49//110 47//110 42//110
f 103//110 101//110 75//110
f 71//110 70//110 186//110
f 61//110 58//110 57//110
f 150//110 151//110 61//110
f 105//110 103//110 75//110
f 101//110 44//110 75//110
f 107//110 105//110 75//110
f 70//110 64//110 186//110
f 63//110 186//110 64//110
f 61//110 186//110 63//110
f 74//110 71//110 186//110
f 74//110 121//110 75//110
f 80//110 78//110 83//110
f 78//110 77//110 83//110
f 85//110 61//110 152//110
f 77//110 197//110 83//110
f 188//110 192//110 187//110
f 189//110 187//110 192//110
f 192//110 190//110 189//110
f 191//110 192//110 188//110
f 186//110 61//110 193//110
f 121//110 74//110 186//110
f 61//110 85//110 198//110
f 199//110 194//110 195//110
f 196//110 195//110 194//110
f 197//110 198//110 83//110
f 85//110 83//110 198//110
f 199//110 189//110 190//110
f 196//110 194//110 93//110
f 186//110 196//110 93//110
f 193//110 61//110 198//110
f 194//110 199//110 190//110
f 121//110 186//110 93//110
f 90//110 121//110 93//110
f 88//110 121//110 90//110
f 86//110 121//110 88//110
f 96//110 99//110 121//110
f 94//110 121//110 98//110
f 86//110 98//110 121//110
f 96//110 121//110 94//110
f 99//110 30//110 121//110
f 30//110 28//110 121//110
f 125//110 121//110 28//110
f 66//110 75//110 44//110
f 45//110 66//110 44//110
f 44//110 42//110 45//110
f 47//110 45//110 42//110
f 107//110 115//110 112//110
f 107//110 112//110 160//110
f 107//110 111//110 109//110
f 118//110 107//110 160//110
f 111//110 107//110 118//110
f 115//110 107//110 161//110
f 123//110 122//110 124//110
f 107//110 75//110 161//110
f 163//110 161//110 75//110
f 163//110 75//110 121//110
f 164//110 163//110 121//110
f 164//110 122//110 123//110
f 120//110 170//110 11//110
f 11//110 168//110 167//110
f 11//110 167//110 166//110
f 11//110 166//110 165//110
f 124//110 11//110 162//110
f 165//110 162//110 11//110
f 169//110 11//110 170//110
f 168//110 11//110 169//110
f 152//169 128//169 84//169
f 152//170 84//170 85//170
f 76//171 173//171 77//171
f 188//172 187//172 178//172
f 176//173 178//173 187//173
f 187//174 189//174 174//174
f 187//175 174//175 176//175
f 174//176 189//176 177//176
f 177//177 189//177 199//177
f 191//178 179//178 180//178
f 191//179 188//179 178//179
f 191//180 178//180 179//180
f 180//181 192//181 191//181
f 196//182 186//182 171//182
f 171//183 186//183 193//183
f 199//184 195//184 184//184
f 199//185 184//185 177//185
f 195//186 196//186 184//186
f 198//187 181//187 172//187
f 197//188 182//188 181//188
f 197//189 181//189 198//189
f 197//190 173//190 182//190
f 173//191 197//191 77//191
f 196//192 185//192 184//192
f 185//193 196//193 171//193
f 194//194 183//194 92//194
f 194//195 92//195 93//195
f 193//196 172//196 171//196
f 172//197 193//197 198//197
f 194//198 175//198 183//198
f 190//199 175//199 194//199
f 190//200 192//200 175//200
f 180//201 175//201 192//201
